<svg xmlns="http://www.w3.org/2000/svg" height="48" viewBox="0 96 960 960" width="48"><path d="M354.831 672q-22.541 0-37.936-15.564T301.5 618.331q0-22.541 15.564-37.936T355.169 565q22.541 0 37.936 15.564t15.395 38.105q0 22.541-15.564 37.936T354.831 672Zm251 0q-22.541 0-37.936-15.564T552.5 618.331q0-22.541 15.564-37.936T606.169 565q22.541 0 37.936 15.564t15.395 38.105q0 22.541-15.564 37.936T605.831 672ZM480 913.5q141.375 0 239.438-98.198Q817.5 717.105 817.5 575.525q0-25.358-4-50.191-4-24.834-10-45.834-20 5-42.762 7-22.761 2-48.405 2-96.515 0-182.424-39.75T383.5 335.5q-34 80.5-96.75 140.5T142.5 568.828v6.965q0 141.582 98.062 239.645Q338.625 913.5 480 913.5Zm.064 57.5q-81.971 0-154.135-31.132-72.165-31.131-125.547-84.5Q147 802 116 729.977q-31-72.024-31-153.913 0-81.971 31.132-154.135 31.131-72.165 84.5-125.547Q254 243 326.023 212q72.023-31 153.913-31 81.971 0 154.135 31.132 72.165 31.131 125.547 84.5Q813 350 844 422.023q31 72.023 31 153.913 0 81.97-31.132 154.135-31.131 72.165-84.5 125.547Q706 909 633.977 940q-72.023 31-153.913 31Z"/></svg>