<svg xmlns="http://www.w3.org/2000/svg" height="48" viewBox="0 96 960 960" width="48"><path d="M1.5 814.5V763q0-38.067 41-62.034Q83.5 677 150.376 677q13.165 0 24.973.75T198 680.109q-8 17.225-11.75 34.563t-3.75 36.183V814.5H1.5Zm240 0v-63.521q0-31.272 17-57.876 17-26.603 49.25-46.103t76.2-29.75Q427.899 607 479.658 607q52.755 0 97.048 10.25Q621 627.5 653 647t49 46.032q17 26.533 17 57.968v63.5H241.5Zm536 0v-63.571q0-18.79-3.5-36.36-3.5-17.569-11-34.407 11-1.684 22.671-2.423Q797.343 677 810 677q67 0 108 23.499t41 62.517V814.5H777.5Zm-627.871-170q-28.129 0-48.129-20.15-20-20.15-20-48.447 0-28.403 20.15-48.653T150.096 507q28.404 0 48.654 20.195Q219 547.389 219 576.371q0 28.129-20.195 48.129-20.194 20-49.176 20Zm660 0q-28.129 0-48.129-20.15-20-20.15-20-48.447 0-28.403 20.15-48.653T810.096 507q28.404 0 48.654 20.195Q879 547.389 879 576.371q0 28.129-20.195 48.129-20.194 20-49.176 20Zm-329.778-70q-49.351 0-83.851-34.578t-34.5-83.975q0-49.947 34.578-84.447t83.975-34.5Q530 337 564.5 371.406t34.5 84.743Q599 505.5 564.594 540t-84.743 34.5Z"/></svg>