<svg xmlns="http://www.w3.org/2000/svg" height="48" viewBox="0 96 960 960" width="48"><path d="M476.89 931.5q-147.89 0-250.14-104.25T124.5 574.5H182q0 124.5 85.507 212Q353.015 874 476.825 874q125.675 0 213.425-88.513Q778 696.974 778 571.005q0-122.969-88.563-207.987Q600.873 278 476.5 278q-67.675 0-126.087 30.5Q292 339 248.5 389H352v57.5H148.5V244H206v105.5q51-60 121.194-94.5 70.195-34.5 149.456-34.5 73.85 0 139.132 27.63 65.282 27.63 114.25 75.5Q779 371.5 807.25 435.684t28.25 138.25q0 74.066-28.25 139.316t-77 113.75q-48.75 48.5-113.99 76.5t-139.37 28Zm127.61-195L453 586.565V375.5h57.5v187L646 695l-41.5 41.5Z"/></svg>