<svg xmlns="http://www.w3.org/2000/svg" height="48" viewBox="0 96 960 960" width="48"><path d="m391 971-20-124.5q-13.5-4.5-35.25-16.75T292 802l-116 53-90.5-160 107-78q-2-9-2.5-20t-.5-21q0-8.5.5-20.25t2.5-21.75l-107-78L176 296.5 293 350q15-12.5 36.25-24.75T371 306.5l20-126h178.5l20 124.5q19 7 40.75 19T667 350l117.5-53.5L875 456l-108.5 77q1.5 10 2.25 21.25t.75 21.75q0 10.5-.75 21.5T766.5 618l108 77L784 855l-117-53.5q-15 13-35.25 25.25T589.5 846.5l-20 124.5H391Zm88-267.5q53 0 90.25-37.25T606.5 576q0-53-37.25-90.25T479 448.5q-53.5 0-90.5 37.25t-37 90.25q0 53 37 90.25T479 703.5Z"/></svg>