<svg xmlns="http://www.w3.org/2000/svg" height="48" viewBox="0 96 960 960" width="48"><path d="M480.064 971q-81.971 0-154.135-31.132-72.165-31.131-125.547-84.5Q147 802 116 729.977q-31-72.024-31-153.913 0-81.971 31.132-154.135 31.131-72.165 84.5-125.547Q254 243 326.023 212q72.023-31 153.913-31 81.971 0 154.135 31.132 72.165 31.131 125.547 84.5Q813 350 844 422.023q31 72.023 31 153.913 0 81.97-31.132 154.135-31.131 72.165-84.5 125.547Q706 909 633.977 940q-72.023 31-153.913 31ZM360 894l63.5-151.5q-37.573-12.615-66.286-40.808Q328.5 673.5 313.5 633.5L162 694q31 70.5 81.75 122.25T360 894Zm-47.5-374.5q15.5-40 43.964-68.692 28.463-28.693 66.036-41.308L362 258q-74.848 31.13-126.609 83.141Q183.63 393.152 162 459l150.5 60.5Zm167.412 175q49.338 0 83.963-34.537 34.625-34.536 34.625-83.875 0-49.338-34.537-83.963-34.537-34.625-83.875-34.625t-83.963 34.537Q361.5 526.574 361.5 575.912t34.537 83.963q34.537 34.625 83.875 34.625ZM600 894q68.5-28 119.25-79.25T798 696l-151.5-62.5q-15 41-43.75 69.25T536.5 742.5L600 894Zm46.5-375.5L798 456q-28-67.5-79.25-118.75T600 258l-61.5 151.5q37.5 12.5 65 40.5t43 68.5Z"/></svg>